<svg width="16" height="16" viewBox="0 0 16 16" fill="none" xmlns="http://www.w3.org/2000/svg">
<path d="M6.99047 0.557464C7.35728 -0.185781 8.41713 -0.185781 8.78394 0.557464L10.4465 3.92621C10.5922 4.22135 10.8737 4.42592 11.1995 4.47325L14.9171 5.01345C15.7373 5.13263 16.0648 6.14061 15.4713 6.71914L12.7812 9.34134C12.5455 9.57108 12.438 9.90208 12.4936 10.2265L13.1286 13.9291C13.2688 14.746 12.4113 15.3689 11.6777 14.9833L8.35255 13.2351C8.06122 13.082 7.71319 13.082 7.42187 13.2351L4.09672 14.9833C3.36309 15.3689 2.50566 14.746 2.64577 13.9291L3.28082 10.2265C3.33645 9.90208 3.22891 9.57108 2.99322 9.34134L0.303119 6.71914C-0.290398 6.14061 0.0371122 5.13264 0.857333 5.01345L4.57496 4.47325C4.90067 4.42592 5.18224 4.22135 5.3279 3.92621L6.99047 0.557464Z" fill="#FFC107"/>
</svg>
